<mxfile host="app.diagrams.net" modified="2023-10-26T11:44:45.578Z" agent="Mozilla/5.0 (Windows NT 10.0; Win64; x64; rv:109.0) Gecko/20100101 Firefox/119.0" etag="oGY1AiTAGM2WzzSVxnjL" version="22.0.8" type="github">
  <diagram id="C5RBs43oDa-KdzZeNtuy" name="Page-1">
    <mxGraphModel dx="2333" dy="2347" grid="1" gridSize="10" guides="1" tooltips="1" connect="1" arrows="1" fold="1" page="1" pageScale="1" pageWidth="827" pageHeight="1169" math="0" shadow="0">
      <root>
        <mxCell id="WIyWlLk6GJQsqaUBKTNV-0" />
        <mxCell id="WIyWlLk6GJQsqaUBKTNV-1" parent="WIyWlLk6GJQsqaUBKTNV-0" />
        <mxCell id="oaOfsjgdT7ONII0M6plM-2" style="edgeStyle=orthogonalEdgeStyle;rounded=0;orthogonalLoop=1;jettySize=auto;html=1;exitX=1;exitY=0.5;exitDx=0;exitDy=0;entryX=0;entryY=0.5;entryDx=0;entryDy=0;" edge="1" parent="WIyWlLk6GJQsqaUBKTNV-1" source="oaOfsjgdT7ONII0M6plM-0" target="oaOfsjgdT7ONII0M6plM-1">
          <mxGeometry relative="1" as="geometry" />
        </mxCell>
        <mxCell id="oaOfsjgdT7ONII0M6plM-0" value="C" style="ellipse;whiteSpace=wrap;html=1;aspect=fixed;" vertex="1" parent="WIyWlLk6GJQsqaUBKTNV-1">
          <mxGeometry x="130" y="220" width="80" height="80" as="geometry" />
        </mxCell>
        <mxCell id="oaOfsjgdT7ONII0M6plM-4" style="edgeStyle=orthogonalEdgeStyle;rounded=0;orthogonalLoop=1;jettySize=auto;html=1;exitX=1;exitY=0.5;exitDx=0;exitDy=0;entryX=0;entryY=0.5;entryDx=0;entryDy=0;" edge="1" parent="WIyWlLk6GJQsqaUBKTNV-1" source="oaOfsjgdT7ONII0M6plM-1" target="oaOfsjgdT7ONII0M6plM-3">
          <mxGeometry relative="1" as="geometry" />
        </mxCell>
        <mxCell id="oaOfsjgdT7ONII0M6plM-1" value="Enter e-mail-address" style="rounded=1;whiteSpace=wrap;html=1;" vertex="1" parent="WIyWlLk6GJQsqaUBKTNV-1">
          <mxGeometry x="380" y="230" width="120" height="60" as="geometry" />
        </mxCell>
        <mxCell id="oaOfsjgdT7ONII0M6plM-8" style="edgeStyle=orthogonalEdgeStyle;rounded=0;orthogonalLoop=1;jettySize=auto;html=1;exitX=1;exitY=0.5;exitDx=0;exitDy=0;entryX=0;entryY=0.5;entryDx=0;entryDy=0;" edge="1" parent="WIyWlLk6GJQsqaUBKTNV-1" source="oaOfsjgdT7ONII0M6plM-3" target="oaOfsjgdT7ONII0M6plM-6">
          <mxGeometry relative="1" as="geometry" />
        </mxCell>
        <mxCell id="oaOfsjgdT7ONII0M6plM-9" value="[click continue-button]" style="edgeLabel;html=1;align=center;verticalAlign=middle;resizable=0;points=[];" vertex="1" connectable="0" parent="oaOfsjgdT7ONII0M6plM-8">
          <mxGeometry x="-0.2533" relative="1" as="geometry">
            <mxPoint x="14" as="offset" />
          </mxGeometry>
        </mxCell>
        <mxCell id="oaOfsjgdT7ONII0M6plM-10" style="edgeStyle=orthogonalEdgeStyle;rounded=0;orthogonalLoop=1;jettySize=auto;html=1;exitX=0.5;exitY=0;exitDx=0;exitDy=0;entryX=0;entryY=0.5;entryDx=0;entryDy=0;" edge="1" parent="WIyWlLk6GJQsqaUBKTNV-1" source="oaOfsjgdT7ONII0M6plM-3" target="oaOfsjgdT7ONII0M6plM-5">
          <mxGeometry relative="1" as="geometry" />
        </mxCell>
        <mxCell id="oaOfsjgdT7ONII0M6plM-11" value="[choose login instead]" style="edgeLabel;html=1;align=center;verticalAlign=middle;resizable=0;points=[];" vertex="1" connectable="0" parent="oaOfsjgdT7ONII0M6plM-10">
          <mxGeometry x="-0.7031" y="-3" relative="1" as="geometry">
            <mxPoint as="offset" />
          </mxGeometry>
        </mxCell>
        <mxCell id="oaOfsjgdT7ONII0M6plM-12" style="edgeStyle=orthogonalEdgeStyle;rounded=0;orthogonalLoop=1;jettySize=auto;html=1;exitX=0.5;exitY=1;exitDx=0;exitDy=0;entryX=0;entryY=0.5;entryDx=0;entryDy=0;" edge="1" parent="WIyWlLk6GJQsqaUBKTNV-1" source="oaOfsjgdT7ONII0M6plM-3" target="oaOfsjgdT7ONII0M6plM-7">
          <mxGeometry relative="1" as="geometry" />
        </mxCell>
        <mxCell id="oaOfsjgdT7ONII0M6plM-13" value="[choose 3rd Party login]" style="edgeLabel;html=1;align=center;verticalAlign=middle;resizable=0;points=[];" vertex="1" connectable="0" parent="oaOfsjgdT7ONII0M6plM-12">
          <mxGeometry x="-0.6205" y="2" relative="1" as="geometry">
            <mxPoint as="offset" />
          </mxGeometry>
        </mxCell>
        <mxCell id="oaOfsjgdT7ONII0M6plM-3" value="" style="rhombus;whiteSpace=wrap;html=1;" vertex="1" parent="WIyWlLk6GJQsqaUBKTNV-1">
          <mxGeometry x="590" y="220" width="80" height="80" as="geometry" />
        </mxCell>
        <mxCell id="oaOfsjgdT7ONII0M6plM-17" style="edgeStyle=orthogonalEdgeStyle;rounded=0;orthogonalLoop=1;jettySize=auto;html=1;exitX=0.5;exitY=0;exitDx=0;exitDy=0;entryX=0.5;entryY=1;entryDx=0;entryDy=0;" edge="1" parent="WIyWlLk6GJQsqaUBKTNV-1" source="oaOfsjgdT7ONII0M6plM-5" target="oaOfsjgdT7ONII0M6plM-16">
          <mxGeometry relative="1" as="geometry" />
        </mxCell>
        <mxCell id="oaOfsjgdT7ONII0M6plM-5" value="" style="rhombus;whiteSpace=wrap;html=1;" vertex="1" parent="WIyWlLk6GJQsqaUBKTNV-1">
          <mxGeometry x="820" y="20" width="80" height="80" as="geometry" />
        </mxCell>
        <mxCell id="oaOfsjgdT7ONII0M6plM-20" style="edgeStyle=orthogonalEdgeStyle;rounded=0;orthogonalLoop=1;jettySize=auto;html=1;exitX=1;exitY=0.5;exitDx=0;exitDy=0;entryX=0;entryY=0.5;entryDx=0;entryDy=0;" edge="1" parent="WIyWlLk6GJQsqaUBKTNV-1" source="oaOfsjgdT7ONII0M6plM-6" target="oaOfsjgdT7ONII0M6plM-18">
          <mxGeometry relative="1" as="geometry" />
        </mxCell>
        <mxCell id="oaOfsjgdT7ONII0M6plM-6" value="" style="rhombus;whiteSpace=wrap;html=1;" vertex="1" parent="WIyWlLk6GJQsqaUBKTNV-1">
          <mxGeometry x="820" y="220" width="80" height="80" as="geometry" />
        </mxCell>
        <mxCell id="oaOfsjgdT7ONII0M6plM-15" style="edgeStyle=orthogonalEdgeStyle;rounded=0;orthogonalLoop=1;jettySize=auto;html=1;exitX=1;exitY=0.5;exitDx=0;exitDy=0;entryX=0;entryY=0.5;entryDx=0;entryDy=0;" edge="1" parent="WIyWlLk6GJQsqaUBKTNV-1" source="oaOfsjgdT7ONII0M6plM-7" target="oaOfsjgdT7ONII0M6plM-14">
          <mxGeometry relative="1" as="geometry" />
        </mxCell>
        <mxCell id="oaOfsjgdT7ONII0M6plM-7" value="" style="rhombus;whiteSpace=wrap;html=1;" vertex="1" parent="WIyWlLk6GJQsqaUBKTNV-1">
          <mxGeometry x="820" y="460" width="80" height="80" as="geometry" />
        </mxCell>
        <mxCell id="oaOfsjgdT7ONII0M6plM-41" style="edgeStyle=orthogonalEdgeStyle;rounded=0;orthogonalLoop=1;jettySize=auto;html=1;exitX=1;exitY=0.5;exitDx=0;exitDy=0;entryX=0.5;entryY=1;entryDx=0;entryDy=0;" edge="1" parent="WIyWlLk6GJQsqaUBKTNV-1" source="oaOfsjgdT7ONII0M6plM-14" target="oaOfsjgdT7ONII0M6plM-39">
          <mxGeometry relative="1" as="geometry" />
        </mxCell>
        <mxCell id="oaOfsjgdT7ONII0M6plM-14" value="login with 3rd party" style="rounded=1;whiteSpace=wrap;html=1;" vertex="1" parent="WIyWlLk6GJQsqaUBKTNV-1">
          <mxGeometry x="1000" y="470" width="120" height="60" as="geometry" />
        </mxCell>
        <mxCell id="oaOfsjgdT7ONII0M6plM-16" value="B" style="ellipse;whiteSpace=wrap;html=1;aspect=fixed;" vertex="1" parent="WIyWlLk6GJQsqaUBKTNV-1">
          <mxGeometry x="820" y="-110" width="80" height="80" as="geometry" />
        </mxCell>
        <mxCell id="oaOfsjgdT7ONII0M6plM-22" style="edgeStyle=orthogonalEdgeStyle;rounded=0;orthogonalLoop=1;jettySize=auto;html=1;exitX=1;exitY=0.5;exitDx=0;exitDy=0;entryX=0;entryY=0.5;entryDx=0;entryDy=0;" edge="1" parent="WIyWlLk6GJQsqaUBKTNV-1" source="oaOfsjgdT7ONII0M6plM-18" target="oaOfsjgdT7ONII0M6plM-21">
          <mxGeometry relative="1" as="geometry" />
        </mxCell>
        <mxCell id="oaOfsjgdT7ONII0M6plM-18" value="enter verification code" style="rounded=1;whiteSpace=wrap;html=1;" vertex="1" parent="WIyWlLk6GJQsqaUBKTNV-1">
          <mxGeometry x="1000" y="230" width="120" height="60" as="geometry" />
        </mxCell>
        <mxCell id="oaOfsjgdT7ONII0M6plM-23" style="edgeStyle=orthogonalEdgeStyle;rounded=0;orthogonalLoop=1;jettySize=auto;html=1;exitX=0.5;exitY=0;exitDx=0;exitDy=0;entryX=1;entryY=0.5;entryDx=0;entryDy=0;" edge="1" parent="WIyWlLk6GJQsqaUBKTNV-1" source="oaOfsjgdT7ONII0M6plM-21" target="oaOfsjgdT7ONII0M6plM-5">
          <mxGeometry relative="1" as="geometry" />
        </mxCell>
        <mxCell id="oaOfsjgdT7ONII0M6plM-24" value="[choose login instead]" style="edgeLabel;html=1;align=center;verticalAlign=middle;resizable=0;points=[];" vertex="1" connectable="0" parent="oaOfsjgdT7ONII0M6plM-23">
          <mxGeometry x="-0.8581" relative="1" as="geometry">
            <mxPoint as="offset" />
          </mxGeometry>
        </mxCell>
        <mxCell id="oaOfsjgdT7ONII0M6plM-26" style="edgeStyle=orthogonalEdgeStyle;rounded=0;orthogonalLoop=1;jettySize=auto;html=1;exitX=1;exitY=0.5;exitDx=0;exitDy=0;entryX=0;entryY=0.5;entryDx=0;entryDy=0;" edge="1" parent="WIyWlLk6GJQsqaUBKTNV-1" source="oaOfsjgdT7ONII0M6plM-21" target="oaOfsjgdT7ONII0M6plM-25">
          <mxGeometry relative="1" as="geometry" />
        </mxCell>
        <mxCell id="oaOfsjgdT7ONII0M6plM-27" value="[continue-button clicked]" style="edgeLabel;html=1;align=center;verticalAlign=middle;resizable=0;points=[];" vertex="1" connectable="0" parent="oaOfsjgdT7ONII0M6plM-26">
          <mxGeometry x="-0.0991" y="-1" relative="1" as="geometry">
            <mxPoint as="offset" />
          </mxGeometry>
        </mxCell>
        <mxCell id="oaOfsjgdT7ONII0M6plM-21" value="" style="rhombus;whiteSpace=wrap;html=1;" vertex="1" parent="WIyWlLk6GJQsqaUBKTNV-1">
          <mxGeometry x="1220" y="220" width="80" height="80" as="geometry" />
        </mxCell>
        <mxCell id="oaOfsjgdT7ONII0M6plM-29" style="edgeStyle=orthogonalEdgeStyle;rounded=0;orthogonalLoop=1;jettySize=auto;html=1;exitX=1;exitY=0.5;exitDx=0;exitDy=0;entryX=0;entryY=0.5;entryDx=0;entryDy=0;" edge="1" parent="WIyWlLk6GJQsqaUBKTNV-1" source="oaOfsjgdT7ONII0M6plM-25" target="oaOfsjgdT7ONII0M6plM-28">
          <mxGeometry relative="1" as="geometry" />
        </mxCell>
        <mxCell id="oaOfsjgdT7ONII0M6plM-25" value="" style="rhombus;whiteSpace=wrap;html=1;" vertex="1" parent="WIyWlLk6GJQsqaUBKTNV-1">
          <mxGeometry x="1470" y="220" width="80" height="80" as="geometry" />
        </mxCell>
        <mxCell id="oaOfsjgdT7ONII0M6plM-31" style="edgeStyle=orthogonalEdgeStyle;rounded=0;orthogonalLoop=1;jettySize=auto;html=1;exitX=1;exitY=0.5;exitDx=0;exitDy=0;entryX=0;entryY=0.5;entryDx=0;entryDy=0;" edge="1" parent="WIyWlLk6GJQsqaUBKTNV-1" source="oaOfsjgdT7ONII0M6plM-28" target="oaOfsjgdT7ONII0M6plM-30">
          <mxGeometry relative="1" as="geometry" />
        </mxCell>
        <mxCell id="oaOfsjgdT7ONII0M6plM-28" value="enter new email,password and accept ToS " style="rounded=1;whiteSpace=wrap;html=1;" vertex="1" parent="WIyWlLk6GJQsqaUBKTNV-1">
          <mxGeometry x="1600" y="230" width="230" height="60" as="geometry" />
        </mxCell>
        <mxCell id="oaOfsjgdT7ONII0M6plM-32" style="edgeStyle=orthogonalEdgeStyle;rounded=0;orthogonalLoop=1;jettySize=auto;html=1;exitX=0.5;exitY=1;exitDx=0;exitDy=0;entryX=0.5;entryY=1;entryDx=0;entryDy=0;" edge="1" parent="WIyWlLk6GJQsqaUBKTNV-1" source="oaOfsjgdT7ONII0M6plM-30" target="oaOfsjgdT7ONII0M6plM-25">
          <mxGeometry relative="1" as="geometry" />
        </mxCell>
        <mxCell id="oaOfsjgdT7ONII0M6plM-33" value="[missing information]" style="edgeLabel;html=1;align=center;verticalAlign=middle;resizable=0;points=[];" vertex="1" connectable="0" parent="oaOfsjgdT7ONII0M6plM-32">
          <mxGeometry x="-0.5773" y="-4" relative="1" as="geometry">
            <mxPoint as="offset" />
          </mxGeometry>
        </mxCell>
        <mxCell id="oaOfsjgdT7ONII0M6plM-34" style="edgeStyle=orthogonalEdgeStyle;rounded=0;orthogonalLoop=1;jettySize=auto;html=1;exitX=0.5;exitY=0;exitDx=0;exitDy=0;entryX=1;entryY=0.5;entryDx=0;entryDy=0;" edge="1" parent="WIyWlLk6GJQsqaUBKTNV-1" source="oaOfsjgdT7ONII0M6plM-30" target="oaOfsjgdT7ONII0M6plM-5">
          <mxGeometry relative="1" as="geometry" />
        </mxCell>
        <mxCell id="oaOfsjgdT7ONII0M6plM-35" value="[choose login instead]" style="edgeLabel;html=1;align=center;verticalAlign=middle;resizable=0;points=[];" vertex="1" connectable="0" parent="oaOfsjgdT7ONII0M6plM-34">
          <mxGeometry x="-0.9471" y="2" relative="1" as="geometry">
            <mxPoint as="offset" />
          </mxGeometry>
        </mxCell>
        <mxCell id="oaOfsjgdT7ONII0M6plM-37" style="edgeStyle=orthogonalEdgeStyle;rounded=0;orthogonalLoop=1;jettySize=auto;html=1;exitX=1;exitY=0.5;exitDx=0;exitDy=0;entryX=0;entryY=0.5;entryDx=0;entryDy=0;" edge="1" parent="WIyWlLk6GJQsqaUBKTNV-1" source="oaOfsjgdT7ONII0M6plM-30" target="oaOfsjgdT7ONII0M6plM-36">
          <mxGeometry relative="1" as="geometry" />
        </mxCell>
        <mxCell id="oaOfsjgdT7ONII0M6plM-38" value="[succesful sign up]" style="edgeLabel;html=1;align=center;verticalAlign=middle;resizable=0;points=[];" vertex="1" connectable="0" parent="oaOfsjgdT7ONII0M6plM-37">
          <mxGeometry x="-0.5667" y="-1" relative="1" as="geometry">
            <mxPoint x="49" y="-1" as="offset" />
          </mxGeometry>
        </mxCell>
        <mxCell id="oaOfsjgdT7ONII0M6plM-30" value="" style="rhombus;whiteSpace=wrap;html=1;" vertex="1" parent="WIyWlLk6GJQsqaUBKTNV-1">
          <mxGeometry x="1910" y="220" width="80" height="80" as="geometry" />
        </mxCell>
        <mxCell id="oaOfsjgdT7ONII0M6plM-40" style="edgeStyle=orthogonalEdgeStyle;rounded=0;orthogonalLoop=1;jettySize=auto;html=1;exitX=1;exitY=0.5;exitDx=0;exitDy=0;entryX=0;entryY=0.5;entryDx=0;entryDy=0;" edge="1" parent="WIyWlLk6GJQsqaUBKTNV-1" source="oaOfsjgdT7ONII0M6plM-36" target="oaOfsjgdT7ONII0M6plM-39">
          <mxGeometry relative="1" as="geometry" />
        </mxCell>
        <mxCell id="oaOfsjgdT7ONII0M6plM-36" value="account signed up" style="rounded=1;whiteSpace=wrap;html=1;" vertex="1" parent="WIyWlLk6GJQsqaUBKTNV-1">
          <mxGeometry x="2180" y="230" width="120" height="60" as="geometry" />
        </mxCell>
        <mxCell id="oaOfsjgdT7ONII0M6plM-39" value="" style="ellipse;shape=doubleEllipse;whiteSpace=wrap;html=1;aspect=fixed;" vertex="1" parent="WIyWlLk6GJQsqaUBKTNV-1">
          <mxGeometry x="2400" y="220" width="80" height="80" as="geometry" />
        </mxCell>
      </root>
    </mxGraphModel>
  </diagram>
</mxfile>
